Coordinates
version=1
nRows=31
nColumns=38
inDegrees=no

Units are S.I. units (second, meters, Newtons, ...)
If the header above contains a line with 'inDegrees', this indicates whether rotational values are in degrees (yes) or radians (no).

endheader
time	pelvis_tilt	pelvis_list	pelvis_rotation	pelvis_tx	pelvis_ty	pelvis_tz	hip_flexion_r	hip_adduction_r	hip_rotation_r	knee_angle_r	ankle_angle_r	subtalar_angle_r	mtp_angle_r	hip_flexion_l	hip_adduction_l	hip_rotation_l	knee_angle_l	ankle_angle_l	subtalar_angle_l	mtp_angle_l	lumbar_extension	lumbar_bending	lumbar_rotation	arm_flex_r	arm_add_r	arm_rot_r	elbow_flex_r	pro_sup_r	wrist_flex_r	wrist_dev_r	arm_flex_l	arm_add_l	arm_rot_l	elbow_flex_l	pro_sup_l	wrist_flex_l	wrist_dev_l
0.94	3.09101	1.19373	-1.45373	0.705281	0.425599	1.12042	-0.0121921	0.00375947	0.0924078	1.03976	-0.228075	0	0	-0.366072	-0.0656666	-0.345119	0.35039	-0.171472	0	0	-0.540405	0.137329	0.0938106	0.754954	-0.591891	0.865331	1.18091	0.353475	0	0	0.376656	-0.452142	0.124587	1.08189	0.723981	0	0
0.95	3.08171	1.19621	-1.44215	0.703192	0.436478	1.1204	0.00010812	0.0140685	0.0978661	1.00316	-0.21239	0	0	-0.373677	-0.0678981	-0.344881	0.350359	-0.168609	0	0	-0.539802	0.142356	0.0937373	0.754455	-0.5932	0.862377	1.18287	0.353868	0	0	0.378149	-0.451063	0.123755	1.08233	0.725319	0	0
0.96	3.07376	1.19842	-1.43239	0.701264	0.447408	1.12007	0.0108249	0.0234001	0.103619	0.963788	-0.197032	0	0	-0.381373	-0.0696087	-0.344552	0.351289	-0.16464	0	0	-0.539198	0.146535	0.093789	0.754081	-0.594221	0.859743	1.18482	0.354533	0	0	0.379541	-0.450407	0.12308	1.08314	0.726325	0	0
0.97	3.06743	1.2001	-1.42446	0.699485	0.458368	1.1195	0.0195848	0.0317902	0.109692	0.921582	-0.181156	0	0	-0.388936	-0.071018	-0.34413	0.353986	-0.158708	0	0	-0.53916	0.149957	0.093873	0.753857	-0.595198	0.857281	1.18737	0.355692	0	0	0.381066	-0.450152	0.122415	1.08435	0.727512	0	0
0.98	3.06258	1.20157	-1.41828	0.697826	0.469402	1.1187	0.0266843	0.0391852	0.116096	0.876332	-0.16906	0	0	-0.396137	-0.0721425	-0.34384	0.357814	-0.153202	0	0	-0.539122	0.152588	0.0936507	0.753364	-0.595297	0.853648	1.18937	0.355149	0	0	0.38225	-0.450573	0.121811	1.08601	0.728473	0	0
0.99	3.05907	1.20283	-1.41358	0.696271	0.480518	1.1177	0.0319698	0.0455754	0.123454	0.82761	-0.159957	0	0	-0.403768	-0.0730605	-0.342879	0.361741	-0.147522	0	0	-0.539042	0.154487	0.0932425	0.753392	-0.595162	0.850606	1.19088	0.355418	0	0	0.38338	-0.451348	0.121196	1.08764	0.729324	0	0
1	3.05639	1.20395	-1.40993	0.694851	0.491743	1.11653	0.0354854	0.0512482	0.132015	0.775424	-0.153555	0	0	-0.411593	-0.0742845	-0.341374	0.367014	-0.141253	0	0	-0.538828	0.155806	0.0928695	0.753681	-0.594857	0.848586	1.19219	0.356944	0	0	0.384384	-0.452344	0.120598	1.08928	0.730043	0	0
1.01	3.05411	1.20492	-1.40685	0.693491	0.503109	1.11524	0.0370707	0.0564124	0.141115	0.72061	-0.148771	0	0	-0.419167	-0.0754507	-0.340448	0.373105	-0.135135	0	0	-0.538405	0.156916	0.0926076	0.753773	-0.594515	0.846816	1.1934	0.358941	0	0	0.385146	-0.453121	0.119829	1.0909	0.730266	0	0
1.02	3.05208	1.20573	-1.4039	0.692105	0.51468	1.1139	0.0365576	0.0610272	0.150307	0.662609	-0.145554	0	0	-0.427347	-0.076429	-0.339411	0.378403	-0.129662	0	0	-0.537758	0.158098	0.0922157	0.752719	-0.593932	0.843017	1.19456	0.359642	0	0	0.38549	-0.453578	0.118768	1.09242	0.730603	0	0
1.03	3.04955	1.20683	-1.40038	0.690717	0.526478	1.11245	0.0346043	0.0652627	0.158908	0.601301	-0.14401	0	0	-0.435707	-0.0775381	-0.337973	0.383128	-0.124728	0	0	-0.536385	0.159369	0.0918756	0.750875	-0.593548	0.838819	1.19606	0.360588	0	0	0.385217	-0.453598	0.11726	1.09408	0.731333	0	0
1.04	3.0468	1.20815	-1.39677	0.689357	0.538483	1.11094	0.0312744	0.0688669	0.166803	0.536686	-0.144415	0	0	-0.444073	-0.0785799	-0.336407	0.387576	-0.120283	0	0	-0.534565	0.160554	0.0916669	0.749006	-0.593646	0.835739	1.19812	0.362174	0	0	0.384439	-0.453273	0.115174	1.0958	0.732457	0	0
1.05	3.04416	1.20936	-1.39332	0.688013	0.550677	1.10938	0.0260132	0.0719998	0.172733	0.468507	-0.145979	0	0	-0.452716	-0.0795894	-0.334744	0.391781	-0.116317	0	0	-0.532618	0.161752	0.0914101	0.74716	-0.593945	0.833288	1.20038	0.363756	0	0	0.383227	-0.45276	0.112558	1.09755	0.733863	0	0
1.06	3.04203	1.21008	-1.39036	0.686663	0.563032	1.10778	0.0183146	0.0744329	0.17607	0.395758	-0.148929	0	0	-0.462281	-0.0804755	-0.332976	0.395476	-0.112978	0	0	-0.530925	0.163052	0.0909752	0.745704	-0.59443	0.830706	1.20244	0.364454	0	0	0.381558	-0.452059	0.109387	1.09948	0.735342	0	0
1.07	3.04117	1.20946	-1.38802	0.68523	0.57556	1.10621	0.00689547	0.0762579	0.174293	0.318617	-0.15466	0	0	-0.473414	-0.0814706	-0.33103	0.398875	-0.110781	0	0	-0.530497	0.164542	0.089941	0.744655	-0.595422	0.828821	1.20532	0.364503	0	0	0.379508	-0.45144	0.105759	1.1022	0.736398	0	0
1.08	3.04115	1.20823	-1.38605	0.683802	0.588318	1.10456	-0.00672829	0.0778286	0.167958	0.239493	-0.161758	0	0	-0.485512	-0.0827496	-0.328985	0.402034	-0.109815	0	0	-0.530154	0.165967	0.0883351	0.743862	-0.596531	0.828408	1.20848	0.363859	0	0	0.377265	-0.451376	0.102528	1.10512	0.73618	0	0
1.09	3.04192	1.20614	-1.3844	0.6824	0.601269	1.10281	-0.0222749	0.0793935	0.157526	0.16041	-0.172044	0	0	-0.498813	-0.0843621	-0.326869	0.405084	-0.109607	0	0	-0.530028	0.167465	0.0862103	0.743707	-0.597748	0.829796	1.2116	0.36308	0	0	0.375286	-0.451951	0.100581	1.10751	0.735814	0	0
1.1	3.044	1.20275	-1.38347	0.681059	0.614362	1.10103	-0.0395911	0.0810925	0.143544	0.0836124	-0.19048	0	0	-0.51343	-0.0862989	-0.324834	0.408385	-0.110218	0	0	-0.530777	0.168874	0.0834497	0.744271	-0.598822	0.831534	1.21424	0.361143	0	0	0.373228	-0.453171	0.0989712	1.11035	0.735169	0	0
1.11	3.04616	1.20153	-1.38334	0.679944	0.627745	1.0989	-0.0525296	0.0827924	0.131553	0.0182767	-0.201654	0	0	-0.523599	-0.0880277	-0.324261	0.413661	-0.110607	0	0	-0.528503	0.169378	0.0813567	0.743363	-0.599343	0.831911	1.2159	0.358351	0	0	0.371181	-0.454235	0.0980009	1.11212	0.73512	0	0
1.12	3.04742	1.2028	-1.38373	0.679149	0.641271	1.09642	-0.0572996	0.0844847	0.125391	0	-0.205933	0	0	-0.523599	-0.0896288	-0.32589	0.421151	-0.111285	0	0	-0.523804	0.169124	0.0804236	0.742163	-0.599558	0.832417	1.21736	0.356612	0	0	0.368975	-0.455178	0.096986	1.11353	0.734961	0	0
1.13	3.04709	1.20437	-1.38206	0.678402	0.654971	1.09383	-0.0581466	0.086788	0.119062	0	-0.205171	0	0	-0.523599	-0.0930832	-0.329878	0.432646	-0.110363	0	0	-0.518179	0.169651	0.0781714	0.743573	-0.599125	0.837867	1.21745	0.350974	0	0	0.36557	-0.456761	0.0949991	1.1153	0.733911	0	0
1.14	3.04671	1.20562	-1.38063	0.67776	0.668783	1.09127	-0.0562639	0.0889372	0.114511	0	-0.191907	0	0	-0.523599	-0.0964247	-0.333474	0.444254	-0.109335	0	0	-0.512503	0.170242	0.0760368	0.745586	-0.598195	0.844477	1.21651	0.348025	0	0	0.362313	-0.458174	0.0930412	1.11614	0.733111	0	0
1.15	3.04564	1.20558	-1.37827	0.677132	0.682673	1.08888	-0.0530402	0.0914504	0.111696	0	-0.177596	0	0	-0.523599	-0.100799	-0.337761	0.457462	-0.108943	0	0	-0.507956	0.17142	0.0741152	0.746408	-0.596774	0.848218	1.21531	0.344978	0	0	0.359644	-0.459406	0.0916267	1.11643	0.732678	0	0
1.16	3.04373	1.20383	-1.37473	0.676519	0.696612	1.08674	-0.0497517	0.0945276	0.111578	0	-0.167915	0	0	-0.523599	-0.10663	-0.342506	0.472967	-0.109348	0	0	-0.505128	0.173355	0.0724934	0.746471	-0.595356	0.849728	1.21432	0.341433	0	0	0.357701	-0.460381	0.0908106	1.11638	0.731795	0	0
1.17	3.04057	1.20123	-1.37038	0.67603	0.710595	1.08466	-0.0445545	0.0985413	0.11613	0.0194229	-0.156176	0	0	-0.523599	-0.113799	-0.347773	0.491879	-0.109864	0	0	-0.503094	0.175906	0.0713377	0.748205	-0.594561	0.854179	1.21354	0.33826	0	0	0.355814	-0.46139	0.0900867	1.11612	0.730568	0	0
1.18	3.03358	1.22868	-1.35698	0.675717	0.723936	1.08077	-0.00290341	0.0979823	0.126284	0.074915	-0.130203	0	0	-0.523599	-0.126173	-0.361978	0.538206	-0.111768	0	0	-0.484344	0.178124	0.0652194	0.74829	-0.593688	0.859518	1.21612	0.337014	0	0	0.357559	-0.459991	0.0913426	1.12254	0.729253	0	0
1.19	3.02961	1.23021	-1.35116	0.675385	0.738636	1.07841	0.00663761	0.102153	0.134196	0.123775	-0.124497	0	0	-0.523599	-0.13406	-0.361875	0.562244	-0.114136	0	0	-0.476875	0.17964	0.0638327	0.744469	-0.592468	0.858455	1.2162	0.337574	0	0	0.354514	-0.460015	0.090069	1.12176	0.728823	0	0
1.2	3.02615	1.22931	-1.3457	0.67512	0.753274	1.07642	0.0123855	0.107271	0.142534	0.166639	-0.11726	0	0	-0.523599	-0.14372	-0.364404	0.590541	-0.118201	0	0	-0.472468	0.181852	0.0624968	0.741941	-0.59103	0.857459	1.21597	0.337989	0	0	0.352486	-0.460648	0.0897526	1.12044	0.72837	0	0
1.21	3.02159	1.22667	-1.33882	0.674856	0.768059	1.07491	0.013983	0.113514	0.149891	0.195551	-0.119886	0	0	-0.523599	-0.154748	-0.3664	0.621901	-0.123779	0	0	-0.469641	0.184885	0.0612223	0.739373	-0.589658	0.85696	1.21576	0.338794	0	0	0.35027	-0.461358	0.0897548	1.11912	0.727801	0	0
1.22	3.01617	1.22247	-1.33108	0.674725	0.783033	1.07394	0.0106779	0.120539	0.156367	0.212363	-0.135612	0	0	-0.523599	-0.166768	-0.366759	0.656187	-0.131171	0	0	-0.468049	0.188293	0.0602156	0.735952	-0.587857	0.855819	1.21525	0.33895	0	0	0.347616	-0.462006	0.0896278	1.11779	0.726695	0	0
1.23	3.01106	1.21658	-1.32407	0.674829	0.798259	1.07346	0.00128418	0.12764	0.16128	0.219962	-0.159862	0	0	-0.523599	-0.179358	-0.36505	0.694	-0.141154	0	0	-0.46738	0.19122	0.0596113	0.730961	-0.585152	0.853266	1.21416	0.337915	0	0	0.344362	-0.462951	0.0894819	1.11655	0.725607	0	0
1.24	3.00704	1.20883	-1.31903	0.675139	0.813623	1.07345	-0.012608	0.134059	0.163479	0.224168	-0.187736	0	0	-0.523599	-0.191806	-0.360498	0.735398	-0.154506	0	0	-0.467793	0.193273	0.0597748	0.725454	-0.582246	0.851004	1.21236	0.337665	0	0	0.340707	-0.464449	0.0897918	1.11548	0.724831	0	0
